<svg width="15" height="88" viewBox="0 0 15 88" fill="none" xmlns="http://www.w3.org/2000/svg">
<g clip-path="url(#clip0_1_1007)">
<path d="M13.98 27.343L10.48 23.843C11.3617 22.7632 11.7949 21.3859 11.69 19.9958C11.585 18.6057 10.95 17.309 9.91625 16.3737C8.88245 15.4385 7.52885 14.9362 6.13521 14.9706C4.74156 15.005 3.4144 15.5735 2.42802 16.5586C1.44163 17.5437 0.871409 18.8702 0.835209 20.2638C0.799009 21.6574 1.29959 23.0116 2.23351 24.0466C3.16742 25.0816 4.46327 25.7183 5.85325 25.825C7.24323 25.9317 8.62108 25.5003 9.70204 24.62L13.202 28.12C13.2531 28.1711 13.3138 28.2116 13.3805 28.2393C13.4473 28.2669 13.5188 28.2811 13.591 28.2811C13.6633 28.2811 13.7348 28.2669 13.8016 28.2393C13.8683 28.2116 13.929 28.1711 13.98 28.12C14.0311 28.0689 14.0716 28.0083 14.0993 27.9415C14.1269 27.8748 14.1412 27.8032 14.1412 27.731C14.1412 27.6588 14.1269 27.5872 14.0993 27.5205C14.0716 27.4537 14.0311 27.3931 13.98 27.342V27.343ZM1.95904 20.418C1.95924 19.5638 2.21271 18.7289 2.68741 18.0188C3.16211 17.3086 3.83671 16.7552 4.62592 16.4285C5.41513 16.1017 6.28351 16.0163 7.12125 16.1831C7.95899 16.3499 8.72846 16.7613 9.33239 17.3654C9.93631 17.9694 10.3476 18.739 10.5141 19.5768C10.6807 20.4145 10.5951 21.2829 10.2682 22.072C9.94125 22.8612 9.38768 23.5357 8.67744 24.0102C7.96721 24.4847 7.13221 24.738 6.27804 24.738C5.13272 24.7369 4.03463 24.2814 3.22486 23.4715C2.41509 22.6615 1.95983 21.5633 1.95904 20.418Z" fill="white"/>
<path d="M13.98 71.593L10.48 68.093C11.3617 67.0132 11.7949 65.6359 11.69 64.2458C11.585 62.8557 10.95 61.559 9.91625 60.6237C8.88245 59.6885 7.52885 59.1862 6.13521 59.2206C4.74156 59.255 3.4144 59.8235 2.42802 60.8086C1.44163 61.7937 0.871409 63.1202 0.835209 64.5138C0.799009 65.9074 1.29959 67.2616 2.23351 68.2966C3.16742 69.3316 4.46327 69.9682 5.85325 70.075C7.24323 70.1817 8.62108 69.7503 9.70204 68.87L13.202 72.37C13.3052 72.4732 13.4451 72.5311 13.591 72.5311C13.7369 72.5311 13.8769 72.4732 13.98 72.37C14.0832 72.2668 14.1412 72.1269 14.1412 71.981C14.1412 71.8351 14.0832 71.6952 13.98 71.592V71.593ZM1.95904 64.668C1.95924 63.8138 2.21271 62.9789 2.68741 62.2688C3.16211 61.5586 3.83671 61.0052 4.62592 60.6785C5.41513 60.3517 6.28351 60.2663 7.12125 60.4331C7.95899 60.5999 8.72846 61.0113 9.33239 61.6154C9.93631 62.2194 10.3476 62.989 10.5141 63.8268C10.6807 64.6645 10.5951 65.5329 10.2682 66.322C9.94125 67.1112 9.38768 67.7856 8.67744 68.2602C7.96721 68.7347 7.13221 68.988 6.27804 68.988C5.13272 68.9869 4.03463 68.5314 3.22486 67.7215C2.41509 66.9115 1.95983 65.8133 1.95904 64.668Z" fill="#86868B"/>
</g>
<defs>
<clipPath id="clip0_1_1007">
<rect width="15" height="88" fill="white"/>
</clipPath>
</defs>
</svg>
