<svg width="44" height="44" viewBox="0 0 44 44" fill="none" xmlns="http://www.w3.org/2000/svg">
<g clip-path="url(#clip0_1_1004)">
<path fill-rule="evenodd" clip-rule="evenodd" d="M42.1206 18.0337V19.6687H43.5266V20.5127H42.1206V24.0867C42.1206 24.8307 42.4016 25.1467 43.0576 25.1467C43.2396 25.1467 43.3396 25.1407 43.5266 25.1237V25.9727C43.3276 26.0087 43.1346 26.0317 42.9346 26.0317C41.6346 26.0317 41.1126 25.5517 41.1126 24.3447V20.5127H40.0936V19.6687H41.1126V18.0337H42.1206ZM35.9896 19.6687H36.9506V20.6057H37.0436C37.2316 19.9907 37.9576 19.5567 38.7956 19.5567C38.9596 19.5567 39.1706 19.5687 39.2996 19.5867V20.5947C39.2176 20.5707 38.8546 20.5357 38.6556 20.5357C37.6946 20.5357 36.9966 21.1797 36.9966 22.0707V25.9847H35.9896V19.6687ZM33.5266 22.8267C33.5266 21.3267 32.8526 20.4657 31.6576 20.4657C30.4626 20.4657 29.7886 21.3267 29.7886 22.8267C29.7886 24.3207 30.4626 25.1877 31.6576 25.1877C32.8526 25.1877 33.5266 24.3207 33.5266 22.8267ZM28.7456 22.8267C28.7456 20.7937 29.8586 19.5567 31.6576 19.5567C33.4566 19.5567 34.5696 20.7937 34.5696 22.8267C34.5696 24.8537 33.4566 26.0967 31.6576 26.0967C29.8586 26.0967 28.7456 24.8537 28.7456 22.8267ZM26.6376 22.8267C26.6376 21.3497 25.9456 20.4657 24.7916 20.4657C23.6486 20.4657 22.9286 21.3737 22.9286 22.8267C22.9286 24.2737 23.6486 25.1877 24.7856 25.1877C25.9456 25.1877 26.6376 24.3037 26.6376 22.8267ZM27.6806 22.8267C27.6806 24.8017 26.6316 26.0967 25.0256 26.0967C24.1236 26.0967 23.3966 25.7037 23.0516 25.0357H22.9576V28.0947H21.9496V19.6687H22.9106V20.7227H23.0046C23.4086 19.9967 24.1646 19.5567 25.0256 19.5567C26.6376 19.5567 27.6806 20.8407 27.6806 22.8267ZM19.6326 22.8267C19.6326 21.3497 18.9416 20.4657 17.7876 20.4657C16.6446 20.4657 15.9236 21.3737 15.9236 22.8267C15.9236 24.2737 16.6446 25.1877 17.7816 25.1877C18.9416 25.1877 19.6326 24.3037 19.6326 22.8267ZM20.6756 22.8267C20.6756 24.8017 19.6266 26.0967 18.0216 26.0967C17.1196 26.0967 16.3926 25.7037 16.0466 25.0357H15.9536V28.0947H14.9456V19.6687H15.9066V20.7227H15.9996C16.4046 19.9967 17.1606 19.5567 18.0216 19.5567C19.6326 19.5567 20.6756 20.8407 20.6756 22.8267ZM13.0306 25.9847H12.0696V24.9947H11.9756C11.6596 25.6977 10.9856 26.0967 10.0186 26.0967C8.60056 26.0967 7.86256 25.2527 7.86256 23.7587V19.6687H8.87056V23.5127C8.87056 24.6487 9.29256 25.1767 10.3006 25.1767C11.4136 25.1767 12.0226 24.5137 12.0226 23.4067V19.6687H13.0306V25.9847ZM1.34056 23.7757C1.46956 24.6607 2.31256 25.2227 3.51456 25.2227C4.65056 25.2227 5.48856 24.6077 5.48856 23.7697C5.48856 23.0497 4.96156 22.5927 3.79556 22.2997L2.71156 22.0177C1.18256 21.6317 0.51956 20.9397 0.51956 19.7387C0.51956 18.3037 1.72156 17.3307 3.50856 17.3307C5.14256 17.3307 6.36156 18.3037 6.44956 19.6687H5.38956C5.24256 18.8017 4.52756 18.2857 3.47356 18.2857C2.34856 18.2857 1.60356 18.8477 1.60356 19.7037C1.60356 20.3657 2.06656 20.7467 3.23256 21.0457L4.11756 21.2797C5.86956 21.7197 6.57256 22.3987 6.57256 23.6407C6.57256 25.1937 5.34856 26.1837 3.41456 26.1837C1.62156 26.1837 0.38556 25.2347 0.27356 23.7757H1.34056Z" fill="white"/>
</g>
<defs>
<clipPath id="clip0_1_1004">
<rect width="44" height="44" fill="white"/>
</clipPath>
</defs>
</svg>
