<svg width="80" height="44" viewBox="0 0 80 44" fill="none" xmlns="http://www.w3.org/2000/svg">
<g clip-path="url(#clip0_1_993)">
<path d="M8.89001 21.77C8.89001 24.47 7.43001 26.2 5.01 26.2C2.58 26.2 1.13 24.48 1.13 21.77C1.13 19.05 2.62 17.35 5.01 17.35C7.41001 17.34 8.89001 19.06 8.89001 21.77ZM2.22 21.77C2.22 23.87 3.26 25.23 5.01 25.23C6.74001 25.23 7.8 23.87 7.8 21.77C7.8 19.65 6.73001 18.32 5.01 18.32C3.29 18.32 2.22 19.65 2.22 21.77ZM10.59 19.68H11.55V20.68H11.64C11.96 19.98 12.57 19.57 13.54 19.57C14.96 19.57 15.75 20.41 15.75 21.91V26H14.74V22.16C14.74 21.02 14.26 20.48 13.25 20.48C12.24 20.48 11.59 21.15 11.59 22.26V26H10.58V19.68H10.59ZM17.65 17.17H18.66V26H17.65V17.17ZM20.7 28.25V27.39C20.82 27.41 20.98 27.42 21.12 27.42C21.7 27.42 22.02 27.14 22.28 26.38L22.4 26L20.06 19.68H21.15L22.88 24.88H22.97L24.7 19.68H25.77L23.3 26.38C22.76 27.84 22.26 28.28 21.14 28.28C21.02 28.28 20.84 28.27 20.7 28.25ZM30.2 22.84C30.2 20.81 31.31 19.57 33.11 19.57C34.91 19.57 36.02 20.81 36.02 22.84C36.02 24.87 34.91 26.11 33.11 26.11C31.31 26.11 30.2 24.87 30.2 22.84ZM34.98 22.84C34.98 21.34 34.31 20.48 33.11 20.48C31.91 20.48 31.24 21.34 31.24 22.84C31.24 24.33 31.91 25.2 33.11 25.2C34.31 25.2 34.98 24.33 34.98 22.84ZM37.61 19.68H38.57V20.68H38.66C38.98 19.98 39.59 19.57 40.56 19.57C41.98 19.57 42.77 20.41 42.77 21.91V26H41.76V22.16C41.76 21.02 41.28 20.48 40.27 20.48C39.26 20.48 38.61 21.15 38.61 22.26V26H37.6L37.61 19.68ZM52.77 23.58H49.41L48.56 26H47.45L50.57 17.54H51.61L54.73 26H53.62L52.77 23.58ZM49.72 22.68H52.46L51.14 18.91H51.05L49.72 22.68ZM61.81 22.84C61.81 24.81 60.76 26.11 59.16 26.11C58.26 26.11 57.53 25.72 57.19 25.05H57.1V28.11H56.09V19.68H57.05V20.73H57.14C57.54 20 58.3 19.56 59.16 19.56C60.77 19.57 61.81 20.85 61.81 22.84ZM60.77 22.84C60.77 21.36 60.08 20.48 58.92 20.48C57.78 20.48 57.06 21.39 57.06 22.84C57.06 24.29 57.78 25.2 58.92 25.2C60.08 25.2 60.77 24.32 60.77 22.84ZM69.12 22.84C69.12 24.81 68.07 26.11 66.47 26.11C65.57 26.11 64.84 25.72 64.5 25.05H64.4V28.11H63.39V19.68H64.35V20.73H64.44C64.84 20 65.6 19.56 66.46 19.56C68.08 19.57 69.12 20.85 69.12 22.84ZM68.08 22.84C68.08 21.36 67.39 20.48 66.23 20.48C65.09 20.48 64.37 21.39 64.37 22.84C64.37 24.29 65.09 25.2 66.23 25.2C67.39 25.2 68.08 24.32 68.08 22.84ZM70.77 17.17H71.78V26H70.77V17.17ZM78.92 24.36C78.63 25.44 77.64 26.11 76.26 26.11C74.51 26.11 73.41 24.84 73.41 22.85C73.41 20.86 74.52 19.57 76.26 19.57C77.97 19.57 79 20.78 79 22.75V23.14H74.46V23.19C74.51 24.44 75.21 25.23 76.28 25.23C77.09 25.23 77.65 24.93 77.91 24.37L78.92 24.36ZM74.46 22.32H77.94C77.92 21.2 77.25 20.46 76.25 20.46C75.24 20.46 74.54 21.2 74.46 22.32Z" fill="white"/>
</g>
<defs>
<clipPath id="clip0_1_993">
<rect width="80" height="44" fill="white"/>
</clipPath>
</defs>
</svg>
