<svg width="30" height="30" viewBox="0 0 30 30" fill="none" xmlns="http://www.w3.org/2000/svg">
<rect width="30" height="30" rx="5" fill="#C8D8E4"/>
<path d="M22.6292 14.5833H7.87083C7.38989 14.5833 7 14.9731 7 15.4541V15.5458C7 16.0267 7.38989 16.4166 7.87083 16.4166H22.6292C23.1101 16.4166 23.5 16.0267 23.5 15.5458V15.4541C23.5 14.9731 23.1101 14.5833 22.6292 14.5833Z" fill="#243142"/>
<path d="M22.6292 19.1667H7.87083C7.38989 19.1667 7 19.5566 7 20.0376V20.1292C7 20.6102 7.38989 21.0001 7.87083 21.0001H22.6292C23.1101 21.0001 23.5 20.6102 23.5 20.1292V20.0376C23.5 19.5566 23.1101 19.1667 22.6292 19.1667Z" fill="#243142"/>
<path d="M22.6292 10H7.87083C7.38989 10 7 10.3899 7 10.8708V10.9625C7 11.4434 7.38989 11.8333 7.87083 11.8333H22.6292C23.1101 11.8333 23.5 11.4434 23.5 10.9625V10.8708C23.5 10.3899 23.1101 10 22.6292 10Z" fill="#243142"/>
</svg>
