<svg width="21" height="21" viewBox="0 0 21 21" fill="none" xmlns="http://www.w3.org/2000/svg">
<path d="M16.8734 9.27922H18.5607C18.5607 4.95132 15.2933 1.68726 10.9595 1.68726V3.37455C14.3864 3.37455 16.8734 5.85739 16.8734 9.27922Z" fill="white"/>
<path d="M10.9675 6.74915C12.7416 6.74915 13.4984 7.5059 13.4984 9.28009H15.1857C15.1857 6.55933 13.6882 5.06186 10.9675 5.06186V6.74915ZM13.8544 11.3411C13.6923 11.1938 13.4793 11.1152 13.2603 11.122C13.0414 11.1287 12.8336 11.2203 12.6809 11.3774L10.6621 13.4536C10.1761 13.3608 9.19917 13.0562 8.19355 12.0531C7.18792 11.0467 6.88337 10.0672 6.7931 9.58464L8.86762 7.56495C9.02489 7.41236 9.11661 7.20457 9.12338 6.98554C9.13015 6.76652 9.05144 6.55346 8.9039 6.39144L5.78663 2.96371C5.63903 2.80119 5.43388 2.70261 5.21476 2.6889C4.99565 2.6752 4.77982 2.74745 4.61312 2.89031L2.78241 4.46034C2.63655 4.60672 2.54949 4.80155 2.53775 5.00786C2.52509 5.21878 2.28381 10.2148 6.15783 14.0906C9.53748 17.4694 13.7709 17.7165 14.9368 17.7165C15.1072 17.7165 15.2118 17.7115 15.2397 17.7098C15.446 17.6982 15.6407 17.6108 15.7864 17.4643L17.3555 15.6327C17.4985 15.4661 17.5709 15.2504 17.5574 15.0313C17.5438 14.8121 17.4454 14.6069 17.283 14.4592L13.8544 11.3411Z" fill="white"/>
</svg>
