<svg width="21" height="21" viewBox="0 0 21 21" fill="none" xmlns="http://www.w3.org/2000/svg">
<path d="M10.1237 1.2655C8.2784 1.26768 6.50934 2.00167 5.20454 3.30647C3.89975 4.61126 3.16576 6.38032 3.16358 8.22558C3.16137 9.73353 3.65394 11.2006 4.56572 12.4016C4.56572 12.4016 4.75554 12.6516 4.78654 12.6876L10.1237 18.9821L15.4633 12.6845C15.4911 12.6509 15.6816 12.4016 15.6816 12.4016L15.6822 12.3997C16.5936 11.1992 17.0859 9.73283 17.0837 8.22558C17.0816 6.38032 16.3476 4.61126 15.0428 3.30647C13.738 2.00167 11.9689 1.26768 10.1237 1.2655ZM10.1237 10.7565C9.62309 10.7565 9.13375 10.6081 8.71754 10.33C8.30133 10.0519 7.97694 9.65659 7.78538 9.19413C7.59382 8.73166 7.54369 8.22277 7.64135 7.73182C7.73901 7.24086 7.98006 6.78989 8.33401 6.43594C8.68797 6.08198 9.13894 5.84093 9.6299 5.74327C10.1208 5.64562 10.6297 5.69574 11.0922 5.8873C11.5547 6.07886 11.95 6.40325 12.2281 6.81947C12.5062 7.23568 12.6546 7.72501 12.6546 8.22558C12.6538 8.89657 12.3868 9.53983 11.9124 10.0143C11.4379 10.4888 10.7946 10.7557 10.1237 10.7565Z" fill="white"/>
</svg>
