<svg width="15" height="14" viewBox="0 0 15 14" fill="none" xmlns="http://www.w3.org/2000/svg">
<path fill-rule="evenodd" clip-rule="evenodd" d="M7.5 0L9.4316 4.26182C9.5058 4.42551 9.62262 4.56711 9.77031 4.67243C9.91801 4.77775 10.0914 4.843 10.2729 4.86168L15 5.34752L11.4667 8.46733C11.331 8.58717 11.2298 8.73995 11.1734 8.91035C11.117 9.08071 11.1073 9.2627 11.1453 9.43791L12.1353 14L8.01995 11.6663C7.86188 11.5767 7.68257 11.5295 7.5 11.5295C7.31743 11.5295 7.13812 11.5767 6.98005 11.6663L2.86474 14L3.85466 9.43791C3.89268 9.2627 3.88297 9.08071 3.82658 8.91035C3.77015 8.73995 3.669 8.58717 3.53329 8.46733L0 5.34752L4.72709 4.86168C4.90864 4.843 5.08199 4.77775 5.22969 4.67243C5.37738 4.56711 5.4942 4.42551 5.5684 4.26182L7.5 0Z" fill="#F4C01E"/>
</svg>
