<svg width="26" height="26" viewBox="0 0 26 26" fill="none" xmlns="http://www.w3.org/2000/svg">
<circle cx="12.6547" cy="12.6547" r="12.6547" fill="white"/>
<path fill-rule="evenodd" clip-rule="evenodd" d="M10.4678 5.94348C11.1425 5.91242 11.3576 5.90552 13.0764 5.90552C14.7951 5.90552 15.0102 5.913 15.6844 5.94348C16.3585 5.97397 16.8187 6.08153 17.2213 6.23742C17.643 6.39675 18.0255 6.64582 18.3419 6.96794C18.664 7.28373 18.9125 7.66567 19.0712 8.08788C19.2277 8.49052 19.3347 8.95069 19.3657 9.62369C19.3968 10.2996 19.4037 10.5147 19.4037 12.2329C19.4037 13.9516 19.3962 14.1667 19.3657 14.8414C19.3353 15.5144 19.2277 15.9746 19.0712 16.3773C18.9125 16.7995 18.6636 17.1821 18.3419 17.4984C18.0255 17.8205 17.643 18.069 17.2213 18.2277C16.8187 18.3842 16.3585 18.4912 15.6855 18.5222C15.0102 18.5533 14.7951 18.5602 13.0764 18.5602C11.3576 18.5602 11.1425 18.5527 10.4678 18.5222C9.79478 18.4917 9.33461 18.3842 8.93196 18.2277C8.5097 18.0689 8.12713 17.82 7.81087 17.4984C7.48897 17.1824 7.23986 16.8 7.08092 16.3778C6.92504 15.9752 6.81805 15.515 6.78699 14.842C6.75593 14.1661 6.74902 13.951 6.74902 12.2329C6.74902 10.5141 6.7565 10.299 6.78699 9.62484C6.81747 8.95069 6.92504 8.49052 7.08092 8.08788C7.2401 7.66572 7.48939 7.28333 7.81144 6.96736C8.12726 6.64553 8.50945 6.39643 8.93138 6.23742C9.33403 6.08153 9.7942 5.97454 10.4672 5.94348H10.4678ZM15.6332 7.0824C14.9659 7.05192 14.7658 7.04559 13.0764 7.04559C11.387 7.04559 11.1868 7.05192 10.5195 7.0824C9.90234 7.11059 9.56757 7.21355 9.34438 7.30041C9.0493 7.41545 8.8382 7.55178 8.61674 7.77323C8.40681 7.97746 8.24526 8.22609 8.14391 8.50088C8.05706 8.72406 7.95409 9.05883 7.92591 9.67604C7.89542 10.3433 7.8891 10.5435 7.8891 12.2329C7.8891 13.9223 7.89542 14.1224 7.92591 14.7897C7.95409 15.4069 8.05706 15.7417 8.14391 15.9648C8.24515 16.2392 8.40679 16.4883 8.61674 16.6925C8.82094 16.9024 9.07001 17.0641 9.34438 17.1653C9.56757 17.2522 9.90234 17.3551 10.5195 17.3833C11.1868 17.4138 11.3864 17.4201 13.0764 17.4201C14.7663 17.4201 14.9659 17.4138 15.6332 17.3833C16.2504 17.3551 16.5852 17.2522 16.8083 17.1653C17.1034 17.0503 17.3145 16.9139 17.536 16.6925C17.7459 16.4883 17.9076 16.2392 18.0088 15.9648C18.0957 15.7417 18.1986 15.4069 18.2268 14.7897C18.2573 14.1224 18.2636 13.9223 18.2636 12.2329C18.2636 10.5435 18.2573 10.3433 18.2268 9.67604C18.1986 9.05883 18.0957 8.72406 18.0088 8.50088C17.8938 8.20579 17.7574 7.99469 17.536 7.77323C17.3317 7.56332 17.0831 7.40177 16.8083 7.30041C16.5852 7.21355 16.2504 7.11059 15.6332 7.0824ZM12.2682 14.1834C12.7195 14.3713 13.2221 14.3966 13.6901 14.2551C14.158 14.1136 14.5624 13.8141 14.834 13.4076C15.1056 13.0011 15.2277 12.5129 15.1794 12.0264C15.131 11.5399 14.9153 11.0853 14.569 10.7402C14.3483 10.5196 14.0814 10.3507 13.7875 10.2456C13.4937 10.1405 13.1801 10.1019 12.8696 10.1325C12.559 10.1632 12.2591 10.2623 11.9914 10.4227C11.7237 10.5832 11.495 10.801 11.3216 11.0605C11.1482 11.32 11.0345 11.6147 10.9886 11.9234C10.9428 12.2321 10.966 12.5471 11.0565 12.8458C11.1471 13.1444 11.3027 13.4193 11.5122 13.6506C11.7217 13.8819 11.9799 14.0639 12.2682 14.1834ZM10.7767 9.93316C11.0787 9.63116 11.4372 9.3916 11.8318 9.22815C12.2264 9.06471 12.6493 8.98059 13.0764 8.98059C13.5035 8.98059 13.9264 9.06471 14.321 9.22815C14.7155 9.3916 15.0741 9.63116 15.3761 9.93316C15.6781 10.2352 15.9176 10.5937 16.0811 10.9883C16.2445 11.3829 16.3286 11.8058 16.3286 12.2329C16.3286 12.66 16.2445 13.0829 16.0811 13.4774C15.9176 13.872 15.6781 14.2306 15.3761 14.5326C14.7661 15.1425 13.9389 15.4851 13.0764 15.4851C12.2138 15.4851 11.3866 15.1425 10.7767 14.5326C10.1667 13.9226 9.8241 13.0954 9.8241 12.2329C9.8241 11.3703 10.1667 10.5431 10.7767 9.93316ZM17.0499 9.46493C17.1248 9.39434 17.1847 9.30944 17.2261 9.21528C17.2676 9.12111 17.2897 9.01959 17.2912 8.91672C17.2927 8.81385 17.2735 8.71172 17.2349 8.61639C17.1962 8.52105 17.1388 8.43445 17.066 8.3617C16.9933 8.28895 16.9067 8.23154 16.8113 8.19286C16.716 8.15418 16.6139 8.13503 16.511 8.13653C16.4081 8.13803 16.3066 8.16015 16.2124 8.20159C16.1183 8.24303 16.0334 8.30294 15.9628 8.37778C15.8255 8.52333 15.7503 8.71665 15.7532 8.91672C15.7562 9.11678 15.8369 9.30783 15.9784 9.44931C16.1199 9.5908 16.3109 9.67157 16.511 9.67448C16.7111 9.6774 16.9044 9.60223 17.0499 9.46493Z" fill="#011C2A"/>
</svg>
