<svg width="26" height="26" viewBox="0 0 26 26" fill="none" xmlns="http://www.w3.org/2000/svg">
<circle cx="12.6547" cy="12.6547" r="12.6547" fill="#FFFEFB"/>
<path d="M19.4037 8.79535C18.9383 8.99303 18.4319 9.1353 17.9103 9.19071C18.4518 8.87388 18.8574 8.37333 19.0509 7.78297C18.5427 8.08068 17.9859 8.28944 17.4054 8.39998C17.1627 8.14453 16.8692 7.94103 16.5432 7.80215C16.2172 7.66328 15.8656 7.59201 15.5104 7.59278C14.0733 7.59278 12.9174 8.73994 12.9174 10.1477C12.9174 10.3454 12.9418 10.543 12.9813 10.7332C10.8294 10.6224 8.9101 9.61004 7.63414 8.06003C7.40164 8.45107 7.27981 8.89632 7.28131 9.34946C7.28131 10.236 7.73907 11.0178 8.43713 11.4775C8.02575 11.4616 7.62401 11.3502 7.26458 11.1526V11.184C7.26458 12.4255 8.15578 13.4544 9.34353 13.691C9.12052 13.748 8.8911 13.7772 8.66069 13.7778C8.49187 13.7778 8.33219 13.7614 8.17098 13.7389C8.49948 14.7513 9.45607 15.4866 10.5952 15.5106C9.70396 16.198 8.58769 16.6023 7.3756 16.6023C7.15812 16.6023 6.95737 16.5948 6.74902 16.5709C7.89876 17.2972 9.26293 17.7165 10.732 17.7165C15.5013 17.7165 18.111 13.8258 18.111 10.4487C18.111 10.3379 18.111 10.227 18.1034 10.1162C18.6083 9.75231 19.0509 9.30154 19.4037 8.79535Z" fill="#010101"/>
</svg>
