<svg width="64" height="64" viewBox="0 0 64 64" fill="none" xmlns="http://www.w3.org/2000/svg">
<path d="M32 31.0058C34.6742 31.0058 37.2388 29.9435 39.1298 28.0526C41.0207 26.1617 42.083 23.597 42.083 20.9228C42.083 18.2487 41.0207 15.684 39.1298 13.7931C37.2388 11.9022 34.6742 10.8398 32 10.8398C29.3258 10.8398 26.7612 11.9022 24.8702 13.7931C22.9793 15.684 21.917 18.2487 21.917 20.9228C21.917 23.597 22.9793 26.1617 24.8702 28.0526C26.7612 29.9435 29.3258 31.0058 32 31.0058ZM32 35.4358C18.594 35.4358 10 42.8338 10 46.4358V53.1618H54V46.4358C54 42.0798 45.864 35.4358 32 35.4358Z" fill="#555555" stroke="#555555" stroke-width="2"/>
</svg>
