<svg width="9" height="14" viewBox="0 0 9 14" fill="none" xmlns="http://www.w3.org/2000/svg">
<path d="M7.23214 0H1.76786C0.793928 0 0 0.654715 0 1.45787V12.1136C0 12.9167 0.793928 13.5714 1.76786 13.5714H7.23214C8.20607 13.5714 9 12.9167 9 12.1136V1.45787C9 0.654715 8.20929 0 7.23214 0ZM3.83464 0.599051H5.19107C5.34857 0.599051 5.47393 0.718331 5.47393 0.864118C5.47393 1.00991 5.34857 1.12919 5.19107 1.12919H3.83464C3.67714 1.12919 3.55179 1.00991 3.55179 0.864118C3.55179 0.718331 3.67714 0.599051 3.83464 0.599051ZM2.55214 0.559291C2.75464 0.559291 2.92179 0.694475 2.92179 0.864118C2.92179 1.03376 2.75464 1.16629 2.55214 1.16629C2.34964 1.16629 2.1825 1.03111 2.1825 0.861468C2.1825 0.691825 2.34643 0.559291 2.55214 0.559291ZM4.51286 12.6463C4.185 12.6463 3.92143 12.429 3.92143 12.1586C3.92143 11.8883 4.185 11.6709 4.51286 11.6709C4.84071 11.6709 5.10429 11.8883 5.10429 12.1586C5.10429 12.429 4.84071 12.6463 4.51286 12.6463ZM7.97143 11.3846H1.03179V1.76535H7.97143V11.3846Z" fill="white"/>
</svg>
