<svg width="52" height="52" viewBox="0 0 52 52" fill="none" xmlns="http://www.w3.org/2000/svg">
<path d="M8.56179 5.74709C10.1488 5.74709 11.4353 4.46056 11.4353 2.87354C11.4353 1.28653 10.1488 0 8.56179 0C7.49814 0 6.56956 0.577869 6.07272 1.43677H5.68824C3.30773 1.43677 1.37793 3.36657 1.37793 5.74709V18.678H4.25147V5.74709C4.25147 4.95359 4.89474 4.31031 5.68824 4.31031H6.07272C6.56956 5.16922 7.49814 5.74709 8.56179 5.74709Z" fill="#555555"/>
<path fill-rule="evenodd" clip-rule="evenodd" d="M5.91744 18.678H4.2505H1.37696C0.583459 18.678 -0.0665505 19.3227 0.00546052 20.1129C0.339496 23.7784 1.94546 27.2297 4.56926 29.8535C6.4933 31.7775 8.86225 33.1542 11.4344 33.8834V37.3561C11.4344 39.2331 12.6341 40.8297 14.3085 41.4213C14.3697 47.1216 19.0097 51.7238 24.7245 51.7238C30.4775 51.7238 35.1411 47.0602 35.1411 41.3072V35.5601C35.1411 32.5844 37.5533 30.1722 40.529 30.1722C43.5047 30.1722 45.9169 32.5844 45.9169 35.5601V39.0381C44.2427 39.6297 43.0433 41.2264 43.0433 43.1031C43.0433 45.4837 44.9731 47.4135 47.3536 47.4135C49.7342 47.4135 51.664 45.4837 51.664 43.1031C51.664 41.2264 50.4645 39.6297 48.7904 39.0381V35.5601C48.7904 30.9975 45.0916 27.2987 40.529 27.2987C35.9664 27.2987 32.2675 30.9975 32.2675 35.5601V41.3072C32.2675 45.4731 28.8904 48.8502 24.7245 48.8502C20.5965 48.8502 17.2431 45.5343 17.1823 41.4208C18.856 40.8289 20.055 39.2325 20.055 37.3561V33.8834C22.6271 33.1542 24.9962 31.7775 26.9202 29.8535C29.544 27.2297 31.1499 23.7784 31.4839 20.1129C31.5561 19.3227 30.9059 18.678 30.1124 18.678V5.74709C30.1124 3.36657 28.1827 1.43677 25.8021 1.43677H25.4176C24.9208 0.577869 23.9922 0 22.9285 0C21.3415 0 20.055 1.28653 20.055 2.87354C20.055 4.46056 21.3415 5.74709 22.9285 5.74709C23.9922 5.74709 24.9208 5.16922 25.4176 4.31031H25.8021C26.5956 4.31031 27.2388 4.95359 27.2388 5.74709V18.678H25.572C24.7785 18.678 24.1478 19.3259 24.0126 20.1079C23.7195 21.8024 22.9101 23.3787 21.6777 24.611C20.1043 26.1846 17.9701 27.0686 15.7447 27.0686C13.5194 27.0686 11.3852 26.1846 9.81167 24.611C8.57935 23.3787 7.76987 21.8024 7.47677 20.1079C7.34157 19.3259 6.71083 18.678 5.91744 18.678ZM26.6361 21.5516H28.3523C27.8154 23.9073 26.6241 26.0859 24.8883 27.8216C22.4633 30.2466 19.1742 31.609 15.7447 31.609C12.3152 31.609 9.02619 30.2466 6.6012 27.8216C4.8654 26.0859 3.67403 23.9073 3.13703 21.5516H4.85327C5.35716 23.4612 6.35911 25.2222 7.77979 26.6429C9.89227 28.7554 12.7573 29.9422 15.7447 29.9422C18.7322 29.9422 21.5972 28.7554 23.7097 26.6429C25.1304 25.2222 26.1322 23.4612 26.6361 21.5516ZM47.3536 41.6664C48.1472 41.6664 48.7904 42.3096 48.7904 43.1031C48.7904 43.8967 48.1472 44.5399 47.3536 44.5399C46.5601 44.5399 45.9169 43.8967 45.9169 43.1031C45.9169 42.3096 46.5601 41.6664 47.3536 41.6664ZM17.1814 34.4825V37.3561C17.1814 38.1496 16.5382 38.7928 15.7447 38.7928C14.9511 38.7928 14.3079 38.1496 14.3079 37.3561V34.4825H17.1814Z" fill="#555555"/>
</svg>
