<svg width="50" height="50" viewBox="0 0 50 50" fill="none" xmlns="http://www.w3.org/2000/svg">
<path d="M1.37211 42.0075C-0.457369 43.837 -0.457369 46.7999 1.37211 48.6294C2.28685 49.5442 3.48569 50 4.68452 50C5.88336 50 7.0822 49.5442 7.99694 48.6294L23.3727 33.2532L16.7478 26.6313L1.37211 42.0075ZM39.8005 13.5092L46.4909 10.0468L50 3.26881L46.7313 0L39.9535 3.50921L36.4912 10.1998L28.3366 18.3547L31.6459 21.6641L39.8005 13.5092ZM41.2647 31.2832C41.0524 31.2707 40.8495 31.2207 40.6341 31.2207C39.4914 31.2207 38.4081 31.4549 37.3966 31.8295L18.1715 12.6038C18.5461 11.5923 18.7802 10.5089 18.7802 9.36622C18.7802 9.1508 18.7303 8.94786 18.7178 8.73556C18.3869 3.862 14.372 0 9.41432 0C7.97196 0 6.62015 0.352794 5.39946 0.936622L11.6216 7.15891C11.9494 7.48673 12.1741 7.87387 12.324 8.28286C12.733 9.3912 12.5113 10.6806 11.6216 11.5735C11.0128 12.1823 10.2135 12.4883 9.41432 12.4883C9.04593 12.4883 8.68065 12.4071 8.33099 12.276C7.92201 12.123 7.53489 11.9013 7.20708 11.5735L0.984983 5.35123C0.401174 6.57196 0.0483907 7.92382 0.0483907 9.36622C0.0483907 14.3241 3.91027 18.3391 8.78368 18.67C8.99597 18.6825 9.1989 18.7324 9.41432 18.7324C10.557 18.7324 11.6403 18.4983 12.6518 18.1236L31.8769 37.3494C31.5023 38.3609 31.2681 39.4443 31.2681 40.587C31.2681 40.8024 31.3181 41.0053 31.3306 41.2176C31.6615 46.0912 35.6764 49.9532 40.6341 49.9532C42.0764 49.9532 43.4282 49.6004 44.6489 49.0165L38.4268 42.7943C38.099 42.4664 37.8742 42.0793 37.7244 41.6703C37.3154 40.562 37.5371 39.2726 38.4268 38.3796C39.0356 37.7708 39.8349 37.4649 40.6341 37.4649C41.0025 37.4649 41.3677 37.5461 41.7174 37.6772C42.1264 37.8302 42.5135 38.0518 42.8413 38.3796L49.0634 44.6019C49.6472 43.3812 50 42.0294 50 40.587C50 35.6291 46.1381 31.6141 41.2647 31.2832Z" fill="#555555"/>
</svg>
