<svg width="48" height="60" viewBox="0 0 48 60" fill="none" xmlns="http://www.w3.org/2000/svg">
<path d="M23.846 10.7694C25.1205 10.7694 26.1537 9.73621 26.1537 8.4617C26.1537 7.18722 25.1205 6.15403 23.846 6.15403V10.7694ZM7.04945 46.9266C7.95409 47.8242 9.41521 47.8186 10.313 46.914C11.2107 46.0094 11.2051 44.5482 10.3004 43.6504L7.04945 46.9266ZM18.8488 16.4123C18.1421 17.4728 18.4285 18.9056 19.4891 19.6125C20.5494 20.3195 21.982 20.0329 22.6891 18.9725L18.8488 16.4123ZM26.9229 8.4617L28.8429 9.74178C29.55 8.68133 29.2632 7.24857 28.2029 6.54163L26.9229 8.4617ZM18.9722 0.387831C17.9119 -0.319148 16.479 -0.0325962 15.7719 1.02786C15.0651 2.08831 15.3516 3.52107 16.4122 4.22801L18.9722 0.387831ZM23.846 49.1346C22.5716 49.1346 21.5383 50.1678 21.5383 51.4423C21.5383 52.7167 22.5716 53.75 23.846 53.75V49.1346ZM40.6425 12.9774C39.7379 12.0797 38.2767 12.0853 37.3788 12.9899C36.4813 13.8946 36.4868 15.3557 37.3914 16.2535L40.6425 12.9774ZM28.8429 43.5876C29.55 42.5273 29.2632 41.0944 28.2029 40.3876C27.1426 39.6805 25.7097 39.967 25.0026 41.0276L28.8429 43.5876ZM20.7691 51.5383L18.8488 50.2583C18.1421 51.3186 18.4285 52.7515 19.4891 53.4583L20.7691 51.5383ZM28.7198 59.6121C29.7801 60.3191 31.2127 60.0327 31.9198 58.9721C32.6269 57.9118 32.3401 56.4789 31.2798 55.7721L28.7198 59.6121ZM23.846 6.15403C10.6762 6.15403 0 16.8302 0 30H4.61535C4.61535 19.3792 13.2252 10.7694 23.846 10.7694V6.15403ZM0 30C0 36.6175 2.6985 42.6088 7.04945 46.9266L10.3004 43.6504C6.7869 40.1639 4.61535 35.3375 4.61535 30H0ZM22.6891 18.9725L28.8429 9.74178L25.0026 7.18165L18.8488 16.4123L22.6891 18.9725ZM28.2029 6.54163L18.9722 0.387831L16.4122 4.22801L25.6429 10.3818L28.2029 6.54163ZM23.846 53.75C37.0158 53.75 47.692 43.0738 47.692 29.904H43.0766C43.0766 40.5248 34.4669 49.1346 23.846 49.1346V53.75ZM47.692 29.904C47.692 23.2865 44.9935 17.2951 40.6425 12.9774L37.3914 16.2535C40.905 19.7402 43.0766 24.5662 43.0766 29.904H47.692ZM25.0026 41.0276L18.8488 50.2583L22.6891 52.8183L28.8429 43.5876L25.0026 41.0276ZM19.4891 53.4583L28.7198 59.6121L31.2798 55.7721L22.0491 49.6183L19.4891 53.4583Z" fill="#555555"/>
</svg>
