<svg width="32" height="32" viewBox="0 0 32 32" fill="none" xmlns="http://www.w3.org/2000/svg">
<rect width="32" height="32" rx="4" fill="#19B300"/>
<path d="M25.2802 16.3519C25.3122 15.6799 24.8322 15.4879 24.6402 15.4879H17.6642C17.0562 15.4879 16.9602 16.1279 16.9602 16.1919V23.6799H25.2802V16.3519ZM20.4802 21.7279C20.4802 22.0799 20.1922 22.3679 19.8402 22.3679H19.2002C18.8482 22.3679 18.5602 22.0799 18.5602 21.7279V21.0879C18.5602 20.7359 18.8482 20.4479 19.2002 20.4479H19.8402C20.1922 20.4479 20.4802 20.7359 20.4802 21.0879V21.7279ZM20.4802 18.4639C20.4802 18.8159 20.1922 19.1039 19.8402 19.1039H19.2002C18.8482 19.1039 18.5602 18.8159 18.5602 18.4639V17.8239C18.5602 17.4719 18.8482 17.1839 19.2002 17.1839H19.8402C20.1922 17.1839 20.4802 17.4719 20.4802 17.8239V18.4639ZM23.6802 21.7279C23.6802 22.0799 23.3922 22.3679 23.0402 22.3679H22.4002C22.0482 22.3679 21.7602 22.0799 21.7602 21.7279V21.0879C21.7602 20.7359 22.0482 20.4479 22.4002 20.4479H23.0402C23.3922 20.4479 23.6802 20.7359 23.6802 21.0879V21.7279ZM23.6802 18.4639C23.6802 18.8159 23.3922 19.1039 23.0402 19.1039H22.4002C22.0482 19.1039 21.7602 18.8159 21.7602 18.4639V17.8239C21.7602 17.4719 22.0482 17.1839 22.4002 17.1839H23.0402C23.3922 17.1839 23.6802 17.4719 23.6802 17.8239V18.4639Z" fill="white"/>
<path d="M18.8802 12.8959C18.8802 12.6399 18.8802 9.18395 18.8802 9.18395C18.9122 8.51195 18.4322 8.31995 18.2402 8.31995H7.42422C6.81622 8.31995 6.72021 8.95995 6.72021 9.02395V23.6799H15.0402V14.3039C15.0402 14.3039 15.0402 13.5359 15.7442 13.5359C15.7442 13.5359 17.9202 13.5359 18.2722 13.5359C18.6242 13.5359 18.8802 13.1519 18.8802 12.8959ZM10.2402 21.4079C10.2402 21.7599 9.95221 22.0479 9.60021 22.0479H8.96021C8.60821 22.0479 8.32021 21.7599 8.32021 21.4079V20.7679C8.32021 20.4159 8.60821 20.1279 8.96021 20.1279H9.60021C9.95221 20.1279 10.2402 20.4159 10.2402 20.7679V21.4079ZM10.2402 18.1119C10.2402 18.4639 9.95221 18.7519 9.60021 18.7519H8.96021C8.60821 18.7519 8.32021 18.4639 8.32021 18.1119V17.4719C8.32021 17.1199 8.60821 16.8319 8.96021 16.8319H9.60021C9.95221 16.8319 10.2402 17.1199 10.2402 17.4719V18.1119ZM10.2402 14.8479C10.2402 15.1999 9.95221 15.4879 9.60021 15.4879H8.96021C8.60821 15.4879 8.32021 15.1999 8.32021 14.8479V14.2079C8.32021 13.8559 8.60821 13.5679 8.96021 13.5679H9.60021C9.95221 13.5679 10.2402 13.8559 10.2402 14.2079V14.8479ZM10.2402 11.5839C10.2402 11.9359 9.95221 12.2239 9.60021 12.2239H8.96021C8.60821 12.2239 8.32021 11.9359 8.32021 11.5839V10.9439C8.32021 10.5919 8.60821 10.3039 8.96021 10.3039H9.60021C9.95221 10.3039 10.2402 10.5919 10.2402 10.9439V11.5839ZM13.7602 21.4079C13.7602 21.7599 13.4722 22.0479 13.1202 22.0479H12.4802C12.1282 22.0479 11.8402 21.7599 11.8402 21.4079V20.7679C11.8402 20.4159 12.1282 20.1279 12.4802 20.1279H13.1202C13.4722 20.1279 13.7602 20.4159 13.7602 20.7679V21.4079ZM13.7602 18.1119C13.7602 18.4639 13.4722 18.7519 13.1202 18.7519H12.4802C12.1282 18.7519 11.8402 18.4639 11.8402 18.1119V17.4719C11.8402 17.1199 12.1282 16.8319 12.4802 16.8319H13.1202C13.4722 16.8319 13.7602 17.1199 13.7602 17.4719V18.1119ZM13.7602 14.8479C13.7602 15.1999 13.4722 15.4879 13.1202 15.4879H12.4802C12.1282 15.4879 11.8402 15.1999 11.8402 14.8479V14.2079C11.8402 13.8559 12.1282 13.5679 12.4802 13.5679H13.1202C13.4722 13.5679 13.7602 13.8559 13.7602 14.2079V14.8479ZM13.7602 11.5839C13.7602 11.9359 13.4722 12.2239 13.1202 12.2239H12.4802C12.1282 12.2239 11.8402 11.9359 11.8402 11.5839V10.9439C11.8402 10.5919 12.1282 10.3039 12.4802 10.3039H13.1202C13.4722 10.3039 13.7602 10.5919 13.7602 10.9439V11.5839ZM17.2802 11.5839C17.2802 11.9359 16.9922 12.2239 16.6402 12.2239H16.0002C15.6482 12.2239 15.3602 11.9359 15.3602 11.5839V10.9439C15.3602 10.5919 15.6482 10.3039 16.0002 10.3039H16.6402C16.9922 10.3039 17.2802 10.5919 17.2802 10.9439V11.5839Z" fill="white"/>
</svg>
